<svg version="1.1" id="Layer_2" xmlns="http://www.w3.org/2000/svg" x="0" y="0" viewBox="0 0 181 59" xml:space="preserve">
  <style>
    .st2{fill-rule:evenodd;clip-rule:evenodd}
  </style>
  <path fill="none" d="M1 1h179v57H1z"/>
  <path d="M1 6.1h0v46.6c0 3 2.3 5.3 5.2 5.3h168.5c2.9 0 5.2-2.3 5.2-5.2V6.3c0-2.9-2.3-5.3-5.2-5.3H6.2C3.4 1 1.1 3.4 1 6.1z" fill="#fff" stroke="#eaeaea" stroke-width="1.5"/>
  <path class="st2" d="M14 13.4l16.8 16.9 16.9-16.9v32.1h-6V28L30.8 38.9 20 28v17.6h-6V13.4zM151 17.4l4.7-4.6h-22.3v33.4h33.5V24l-4.7 4.6v13h-24.1V17.4H151z"/>
  <path d="M146.8 29.7L157.5 19l2.8 2.8-10.9 10.9h8.2v4h-14.8v-15h4v8z"/>
  <path d="M113.9 29.5L126.4 42l-4.2 4.2-12.5-12.5-12.5 12.6-4.2-4.2 12.5-12.5L93 17l4.2-4.2 12.5 12.5 12.5-12.5 4.2 4.2-12.5 12.5z" fill-rule="evenodd" clip-rule="evenodd" fill="#f9ac00"/>
  <path d="M73.4 35.2V12.4h-6V35L59 26.6l-4.2 4.2 15.7 15.7L86 31.1l-4.2-4.2-8.4 8.3z"/>
</svg>